<?xml version="1.0" encoding="UTF-8" standalone="no"?>
<!-- Created with Inkscape (http://www.inkscape.org/) -->

<svg
   width="210mm"
   height="297mm"
   viewBox="0 0 210 297"
   version="1.1"
   id="svg1"
   inkscape:version="1.4.1 (93de688d07, 2025-03-30)"
   xml:space="preserve"
   sodipodi:docname="trace_logo.svg"
   inkscape:export-filename="trace_logo.png"
   inkscape:export-xdpi="180"
   inkscape:export-ydpi="180"
   xmlns:inkscape="http://www.inkscape.org/namespaces/inkscape"
   xmlns:sodipodi="http://sodipodi.sourceforge.net/DTD/sodipodi-0.dtd"
   xmlns:xlink="http://www.w3.org/1999/xlink"
   xmlns="http://www.w3.org/2000/svg"
   xmlns:svg="http://www.w3.org/2000/svg"><sodipodi:namedview
     id="namedview1"
     pagecolor="#ffffff"
     bordercolor="#eeeeee"
     borderopacity="1"
     inkscape:showpageshadow="0"
     inkscape:pageopacity="0"
     inkscape:pagecheckerboard="0"
     inkscape:deskcolor="#fdfdfd"
     inkscape:document-units="mm"
     showguides="false"
     inkscape:zoom="1.0520974"
     inkscape:cx="470.01352"
     inkscape:cy="247.60065"
     inkscape:window-width="2560"
     inkscape:window-height="1368"
     inkscape:window-x="0"
     inkscape:window-y="0"
     inkscape:window-maximized="1"
     inkscape:current-layer="layer1"><sodipodi:guide
       position="0.26403466,217.3731"
       orientation="0,-1"
       id="guide4"
       inkscape:locked="false" /></sodipodi:namedview><defs
     id="defs1"><linearGradient
       id="swatch15"
       inkscape:swatch="solid"><stop
         style="stop-color:#208015;stop-opacity:1;"
         offset="0"
         id="stop15" /></linearGradient><linearGradient
       id="swatch20"
       inkscape:swatch="solid"><stop
         style="stop-color:#000000;stop-opacity:1;"
         offset="0"
         id="stop20" /></linearGradient><linearGradient
       id="swatch19"
       inkscape:swatch="solid"><stop
         style="stop-color:#208015;stop-opacity:1;"
         offset="0"
         id="stop19" /></linearGradient><linearGradient
       id="swatch16"
       inkscape:swatch="solid"><stop
         style="stop-color:#208015;stop-opacity:1;"
         offset="0"
         id="stop16" /></linearGradient><linearGradient
       id="swatch14"
       inkscape:swatch="solid"><stop
         style="stop-color:#040e24;stop-opacity:1;"
         offset="0"
         id="stop14" /></linearGradient><linearGradient
       id="swatch9"
       inkscape:swatch="solid"><stop
         style="stop-color:#40953d;stop-opacity:1;"
         offset="0"
         id="stop9" /></linearGradient><linearGradient
       id="swatch8"
       inkscape:swatch="solid"><stop
         style="stop-color:#208015;stop-opacity:1;"
         offset="0"
         id="stop8" /></linearGradient><linearGradient
       id="swatch6"
       inkscape:swatch="solid"><stop
         style="stop-color:#173148;stop-opacity:1;"
         offset="0"
         id="stop6" /></linearGradient><linearGradient
       id="swatch5"
       inkscape:swatch="solid"><stop
         style="stop-color:#163047;stop-opacity:1;"
         offset="0"
         id="stop5" /></linearGradient><linearGradient
       id="swatch4"
       inkscape:swatch="solid"><stop
         style="stop-color:#3e923c;stop-opacity:1;"
         offset="0"
         id="stop4" /></linearGradient><linearGradient
       inkscape:collect="always"
       xlink:href="#swatch4"
       id="linearGradient5"
       x1="-0.020686179"
       y1="83.850075"
       x2="64.138756"
       y2="83.850075"
       gradientUnits="userSpaceOnUse" /><linearGradient
       inkscape:collect="always"
       xlink:href="#swatch6"
       id="linearGradient6"
       x1="153.81363"
       y1="236.33644"
       x2="400.74139"
       y2="236.33644"
       gradientUnits="userSpaceOnUse" /><linearGradient
       inkscape:collect="always"
       xlink:href="#swatch8"
       id="linearGradient8"
       x1="833.04132"
       y1="1295.7944"
       x2="900.95746"
       y2="1295.7944"
       gradientUnits="userSpaceOnUse" /><linearGradient
       inkscape:collect="always"
       xlink:href="#swatch4"
       id="linearGradient9"
       x1="833.04132"
       y1="1295.7944"
       x2="900.95746"
       y2="1295.7944"
       gradientUnits="userSpaceOnUse" /><linearGradient
       inkscape:collect="always"
       xlink:href="#swatch4"
       id="linearGradient10"
       gradientUnits="userSpaceOnUse"
       x1="833.04132"
       y1="1295.7944"
       x2="900.95746"
       y2="1295.7944" /><linearGradient
       inkscape:collect="always"
       xlink:href="#swatch8"
       id="linearGradient11"
       gradientUnits="userSpaceOnUse"
       x1="833.04132"
       y1="1295.7944"
       x2="900.95746"
       y2="1295.7944" /><linearGradient
       inkscape:collect="always"
       xlink:href="#swatch4"
       id="linearGradient12"
       gradientUnits="userSpaceOnUse"
       x1="833.04132"
       y1="1295.7944"
       x2="900.95746"
       y2="1295.7944" /><linearGradient
       inkscape:collect="always"
       xlink:href="#swatch8"
       id="linearGradient13"
       gradientUnits="userSpaceOnUse"
       x1="833.04132"
       y1="1295.7944"
       x2="900.95746"
       y2="1295.7944" /><linearGradient
       inkscape:collect="always"
       xlink:href="#swatch8"
       id="linearGradient15"
       gradientUnits="userSpaceOnUse"
       x1="-0.020686179"
       y1="83.850075"
       x2="64.138756"
       y2="83.850075" /><linearGradient
       inkscape:collect="always"
       xlink:href="#swatch14"
       id="linearGradient17"
       gradientUnits="userSpaceOnUse"
       x1="215.2077"
       y1="282.06848"
       x2="282.65887"
       y2="282.06848" /><linearGradient
       inkscape:collect="always"
       xlink:href="#swatch6"
       id="linearGradient29"
       gradientUnits="userSpaceOnUse"
       x1="153.81363"
       y1="236.33644"
       x2="400.74139"
       y2="236.33644" /><linearGradient
       inkscape:collect="always"
       xlink:href="#swatch14"
       id="linearGradient30"
       gradientUnits="userSpaceOnUse"
       x1="215.2077"
       y1="282.06848"
       x2="282.65887"
       y2="282.06848" /><linearGradient
       inkscape:collect="always"
       xlink:href="#swatch14"
       id="linearGradient31"
       gradientUnits="userSpaceOnUse"
       x1="215.2077"
       y1="282.06848"
       x2="282.65887"
       y2="282.06848" /><linearGradient
       inkscape:collect="always"
       xlink:href="#swatch14"
       id="linearGradient27"
       gradientUnits="userSpaceOnUse"
       x1="1165.6644"
       y1="624.71802"
       x2="1345.8776"
       y2="624.71802" /><linearGradient
       inkscape:collect="always"
       xlink:href="#swatch6"
       id="linearGradient28"
       gradientUnits="userSpaceOnUse"
       x1="960.70355"
       y1="559.04816"
       x2="1568.3303"
       y2="559.04816" /></defs><g
     inkscape:label="Layer 1"
     inkscape:groupmode="layer"
     id="layer1"><path
       id="path3"
       style="display:none;fill:url(#linearGradient6);fill-opacity:1;stroke:none"
       d="m 315.20773,379.65047 c -5.64561,-4.08687 -21.30608,-11.97112 -12.08616,-22.88687 9.21992,-10.91575 -17.02637,-11.539 -6.8462,-19.86038 10.18017,-8.32138 -5.60922,-13.56921 -3.4455,-21.59281 2.16372,-8.0236 16.09955,-11.84447 3.12364,-17.84426 -12.97591,-5.99979 -4.55345,-23.05466 -2.68579,-31.25955 1.86766,-8.20489 -0.33875,-7.22128 -0.3598,-16.92209 -0.0211,-9.70081 11.20233,-11.50263 10.36087,-30.02587 -0.84146,-18.52324 12.42477,-10.04678 12.65577,-21.34076 0.231,-11.29398 18.24543,3.34981 15.28559,-9.21195 -2.95984,-12.56176 -5.84185,-25.67661 -3.741,-34.98456 2.10085,-9.30795 -8.88527,-8.76784 -11.79845,-2.92838 -2.91318,5.83946 -11.96619,7.86269 -20.30162,0.35258 -8.33543,-7.51011 -1.79126,-19.98409 6.32975,-26.24958 8.12101,-6.26549 2.94831,-16.75241 5.27609,-26.522315 2.32778,-9.769907 12.48884,3.498275 18.11363,-5.330159 5.62479,-8.82843 10.11798,12.639644 20.25254,8.673014 10.13456,-3.966633 23.88757,-10.786102 33.65947,-7.871327 9.7719,2.914775 23.30467,16.298067 18.52809,24.646587 -4.77658,8.34852 -14.00607,7.42145 -12.47175,15.36479 1.53432,7.94334 10.37604,8.22873 6.8032,17.44691 -3.57284,9.21818 3.72046,17.68969 4.79644,25.25084 1.07598,7.56115 0.26516,6.25058 1.40043,17.47505 1.13527,11.22447 6.40442,23.31954 -1.94156,30.62636 -8.34598,7.30682 -3.87031,14.07785 -10.27729,21.48112 -6.40698,7.40327 -2.6104,1.33949 -8.08396,9.77574 -5.47356,8.43625 24.59991,11.79605 13.80418,25.29389 -10.79573,13.49784 -20.23825,-10.34886 -21.58305,3.05455 -1.3448,13.40341 -6.89729,2.44416 -17.16379,-3.78912 -10.2665,-6.23328 -3.684,-20.88803 -14.84957,-17.9294 -11.16557,2.95863 -3.98784,-6.58337 -12.004,-0.87422 -8.01616,5.70915 -5.90723,13.37332 -8.80987,26.92589 -2.90264,13.55257 0.0185,22.94275 4.50528,30.50972 4.48683,7.56697 5.46999,8.53308 0.56245,16.47319 -4.90754,7.94011 3.71036,15.6748 6.30328,23.74723 2.59292,8.07243 -7.42672,9.90561 -5.66494,16.15169 1.76178,6.24608 -2.00079,8.26132 -7.6464,4.17445 z m -75.86043,0 c 5.64561,-4.08687 21.30608,-11.97112 12.08616,-22.88687 -9.21992,-10.91575 17.02637,-11.539 6.8462,-19.86038 -10.18017,-8.32138 5.60922,-13.56921 3.4455,-21.59281 -2.16372,-8.0236 -16.09955,-11.84447 -3.12364,-17.84426 12.97591,-5.99979 4.55345,-23.05466 2.68579,-31.25955 -1.86766,-8.20489 0.33875,-7.22128 0.3598,-16.92209 0.0211,-9.70081 -11.20233,-11.50263 -10.36087,-30.02587 0.84146,-18.52324 -12.42477,-10.04678 -12.65577,-21.34076 -0.231,-11.29398 -18.24543,3.34981 -15.28559,-9.21195 2.95984,-12.56176 5.84185,-25.67661 3.741,-34.98456 -2.10085,-9.30795 8.88527,-8.76784 11.79845,-2.92838 2.91318,5.83946 11.96619,7.86269 20.30162,0.35258 8.33543,-7.51011 1.79126,-19.98409 -6.32975,-26.24958 -8.12101,-6.26549 -2.94831,-16.75241 -5.27609,-26.522315 -2.32778,-9.769907 -12.48884,3.498275 -18.11363,-5.330159 -5.62479,-8.82843 -10.11798,12.639644 -20.25254,8.673014 -10.13456,-3.966633 -23.88757,-10.786102 -33.65947,-7.871327 -9.7719,2.914775 -23.30467,16.298067 -18.52809,24.646587 4.77658,8.34852 14.00607,7.42145 12.47175,15.36479 -1.53432,7.94334 -10.37604,8.22873 -6.8032,17.44691 3.57284,9.21818 -3.72046,17.68969 -4.79644,25.25084 -1.07598,7.56115 -0.26516,6.25058 -1.40043,17.47505 -1.13527,11.22447 -6.40442,23.31954 1.94156,30.62636 8.34598,7.30682 3.87031,14.07785 10.27729,21.48112 6.40698,7.40327 2.6104,1.33949 8.08396,9.77574 5.47356,8.43625 -24.59991,11.79605 -13.80418,25.29389 10.79573,13.49784 20.23825,-10.34886 21.58305,3.05455 1.3448,13.40341 6.89729,2.44416 17.16379,-3.78912 10.2665,-6.23328 3.684,-20.88803 14.84957,-17.9294 11.16557,2.95863 3.98784,-6.58337 12.004,-0.87422 8.01616,5.70915 5.90723,13.37332 8.80987,26.92589 2.90264,13.55257 -0.0185,22.94275 -4.50528,30.50972 -4.48683,7.56697 -5.46999,8.53308 -0.56245,16.47319 4.90754,7.94011 -3.71036,15.6748 -6.30328,23.74723 -2.59292,8.07243 7.42672,9.90561 5.66494,16.15169 -1.76178,6.24608 2.00079,8.26132 7.6464,4.17445 z"
       sodipodi:nodetypes="zzzzzzzzzzzzzzzzzzzzzzzzzzzzzzzzzzzzzzzzzzzzzzzzzzzzzzzzzzzzzzzzzzzzzzzzzz"
       transform="matrix(-0.27357427,0,0,0.27357427,324.73818,217.65767)" /><g
       id="g7"
       style="stroke:url(#linearGradient17)"
       transform="matrix(0.67128237,0,0,0.67128237,-129.25413,-155.92927)"><path
         id="path7"
         style="fill:url(#linearGradient29);fill-opacity:1;stroke:url(#linearGradient30)"
         d="m 250.72238,375.42544 c 5.64561,-4.08687 14.5551,-11.48362 12.64773,-19.63685 -1.90737,-8.15323 5.48879,-12.19523 1.97117,-21.81662 -3.51762,-9.62139 2.87265,-10.96296 0.70893,-18.98656 -2.16372,-8.0236 -3.77542,-9.40696 -0.0621,-17.51926 3.71335,-8.1123 1.30343,-23.05466 -0.56423,-31.25955 -1.86766,-8.20489 0.33875,-7.22128 0.3598,-16.92209 0.0211,-9.70081 -15.33893,-11.50263 -14.49747,-30.02587 0.84146,-18.52324 -15.83729,-5.98425 -16.06829,-17.27823 -0.231,-11.29398 -6.54535,-3.04894 -8.13554,-15.12319 -1.5902,-12.07426 -18.78906,-22.30418 -7.71819,-36.36954 11.07087,-14.06536 7.4465,-8.90833 16.5914,-22.34167 9.1449,-13.43333 13.9518,-20.00243 11.62402,-29.772335 -9.4149,-16.067969 -29.16738,4.885665 -38.36617,3.342855 -10.13456,-3.966633 -23.88757,-10.786102 -33.65947,-7.871327 -9.7719,2.914775 -23.30467,16.298067 -18.52809,24.646587 4.77658,8.34852 14.00607,7.42145 12.47175,15.36479 -1.53432,7.94334 -10.37604,8.22873 -6.8032,17.44691 3.57284,9.21818 -3.72046,17.68969 -4.79644,25.25084 -1.07598,7.56115 -0.26516,6.25058 -1.40043,17.47505 -1.13527,11.22447 -3.02469,18.22325 1.94156,30.62636 4.86653,12.15406 11.39017,20.55492 18.36125,31.25686 5.47356,8.43625 -10.81123,12.48548 -2.77324,20.46785 8.038,7.98237 9.2416,2.65039 19.97437,-1.08205 10.73277,-3.73244 9.89876,-7.01932 23.33435,-8.57425 13.43558,-1.55493 11.65251,8.31747 14.55515,21.87004 2.90264,13.55257 0.30655,22.61775 -1.90526,30.34722 -2.21182,7.72947 -2.38247,9.50809 -1.04996,16.79819 1.33252,7.29011 1.00218,15.3498 0.35927,22.44722 -0.64291,7.09743 3.20169,10.06811 1.43991,16.31419 -1.82299,6.66566 15.35619,3.88584 19.98739,0.92443 z"
         sodipodi:nodetypes="zzzzzzzzzzzzzzzzzzzzszzzzzzzzzzz"
         transform="matrix(-0.27357427,0,0,0.27357427,324.73818,217.65767)" /><use
         x="0"
         y="0"
         xlink:href="#path7"
         id="use7"
         transform="matrix(-1,0,0,1,497.86656,0)"
         style="stroke:url(#linearGradient31)" /></g><path
       style="display:inline;fill:none;stroke:#ffffff;stroke-width:9.17928;stroke-linecap:round;stroke-dasharray:none"
       d="m 0.47931382,81.405147 c 2.91554478,0.07322 6.45823418,-0.379682 8.64509558,1.863517 2.0844706,2.13817 2.4096396,6.355039 4.8700306,8.107146 2.777659,1.978042 4.959494,-6.082589 5.723061,-8.173463 0.801314,-2.194238 1.950185,-4.137428 2.956903,-0.548305 0.971351,3.463034 1.848218,7.042523 2.694229,10.452985 0.484099,1.951515 2.262493,8.435733 3.561424,5.267151 1.633851,-3.985581 2.389873,-11.078017 3.101871,-15.303672 0.768053,-4.558337 1.166694,-9.296314 2.65461,-13.73065 0.971354,-2.894862 2.23208,2.277132 2.509783,3.510289 1.188075,5.275725 2.015651,10.629757 3.33443,15.8873 0.584149,2.328813 2.448472,6.577684 4.103784,3.941386 2.094011,-3.334983 3.246581,-9.100387 5.739518,-12.07742 1.674374,-1.999515 2.507915,0.68924 5.143569,0.803734 2.358517,0.102454 5.976619,0.0241 8.121136,0"
       id="path6"
       transform="matrix(0.71440897,0,0,0.71440897,14.497063,-37.182454)"
       sodipodi:nodetypes="csssssssssssssc" /><path
       style="display:inline;fill:none;stroke:url(#linearGradient15);stroke-width:3.67584;stroke-linecap:round;stroke-dasharray:none"
       d="m 0.47931382,81.405147 c 2.91554478,0.07322 6.45823418,-0.379682 8.64509558,1.863517 2.0844706,2.13817 2.4096396,6.355039 4.8700306,8.107146 2.777659,1.978042 4.959494,-6.082589 5.723061,-8.173463 0.801314,-2.194238 1.950185,-4.137428 2.956903,-0.548305 0.971351,3.463034 1.848218,7.042523 2.694229,10.452985 0.484099,1.951515 2.262493,8.435733 3.561424,5.267151 1.633851,-3.985581 2.389873,-11.078017 3.101871,-15.303672 0.768053,-4.558337 1.166694,-9.296314 2.65461,-13.73065 0.971354,-2.894862 2.23208,2.277132 2.509783,3.510289 1.188075,5.275725 2.015651,10.629757 3.33443,15.8873 0.584149,2.328813 2.448472,6.577684 4.103784,3.941386 2.094011,-3.334983 3.246581,-9.100387 5.739518,-12.07742 1.674374,-1.999515 2.507915,0.68924 5.143569,0.803734 2.358517,0.102454 5.976619,0.0241 8.121136,0"
       id="path14"
       transform="matrix(0.71440897,0,0,0.71440897,14.497057,-37.182454)"
       sodipodi:nodetypes="csssssssssssssc" /><path
       style="display:inline;fill:none;stroke:url(#linearGradient5);stroke-width:3.29999;stroke-linecap:round;stroke-dasharray:none"
       d="m 0.47931382,81.405147 c 2.91554478,0.07322 6.45823418,-0.379682 8.64509558,1.863517 2.0844706,2.13817 2.4096396,6.355039 4.8700306,8.107146 2.777659,1.978042 4.959494,-6.082589 5.723061,-8.173463 0.801314,-2.194238 1.950185,-4.137428 2.956903,-0.548305 0.971351,3.463034 1.848218,7.042523 2.694229,10.452985 0.484099,1.951515 2.262493,8.435733 3.561424,5.267151 1.633851,-3.985581 2.389873,-11.078017 3.101871,-15.303672 0.768053,-4.558337 1.166694,-9.296314 2.65461,-13.73065 0.971354,-2.894862 2.23208,2.277132 2.509783,3.510289 1.188075,5.275725 2.015651,10.629757 3.33443,15.8873 0.584149,2.328813 2.448472,6.577684 4.103784,3.941386 2.094011,-3.334983 3.246581,-9.100387 5.739518,-12.07742 1.674374,-1.999515 2.507915,0.68924 5.143569,0.803734 2.358517,0.102454 5.976619,0.0241 8.121136,0"
       id="path4"
       transform="matrix(0.71440897,0,0,0.71440897,14.497057,-37.182454)"
       sodipodi:nodetypes="csssssssssssssc" /><circle
       style="fill:url(#linearGradient9);fill-opacity:1;fill-rule:nonzero;stroke:url(#linearGradient8);stroke-width:4.10214;stroke-linecap:round;stroke-dasharray:none;stroke-opacity:1;paint-order:markers stroke fill"
       id="path8"
       transform="matrix(0.15234044,0,0,0.15234044,-108.60192,-129.54307)"
       cx="866.99939"
       cy="1295.7944"
       r="20.162775" /><circle
       style="fill:url(#linearGradient10);fill-opacity:1;fill-rule:nonzero;stroke:url(#linearGradient11);stroke-width:4.10214;stroke-linecap:round;stroke-dasharray:none;stroke-opacity:1;paint-order:markers stroke fill"
       id="circle9"
       transform="matrix(0.15234044,0,0,0.15234044,-94.228673,-129.54307)"
       cx="866.99939"
       cy="1295.7944"
       r="20.162775" /><circle
       style="fill:url(#linearGradient12);fill-opacity:1;fill-rule:nonzero;stroke:url(#linearGradient13);stroke-width:4.10214;stroke-linecap:round;stroke-dasharray:none;stroke-opacity:1;paint-order:markers stroke fill"
       id="circle11"
       transform="matrix(0.15234044,0,0,0.15234044,-79.855424,-129.54307)"
       cx="866.99939"
       cy="1295.7944"
       r="20.162775" /><text
       xml:space="preserve"
       style="font-size:53.3333px;line-height:1.25;font-family:sans-serif;-inkscape-font-specification:sans-serif;letter-spacing:0px;word-spacing:0px;fill:#183149;fill-opacity:1;stroke:url(#linearGradient27);stroke-width:0.412898;stroke-dasharray:none"
       x="1164.0643"
       y="643.86462"
       id="text17"
       transform="matrix(0.6503136,0,0,0.6503136,-687.37271,-374.26427)"><tspan
         sodipodi:role="line"
         id="tspan17"
         x="1164.0643"
         y="643.86462"
         style="font-style:normal;font-variant:normal;font-weight:600;font-stretch:normal;font-family:FreeSans;-inkscape-font-specification:'FreeSans Semi-Bold';fill:#183149;fill-opacity:1;stroke:url(#linearGradient27);stroke-width:0.412898;stroke-dasharray:none">TRACE</tspan></text><text
       xml:space="preserve"
       style="font-size:53.3333px;line-height:1.25;font-family:sans-serif;-inkscape-font-specification:sans-serif;letter-spacing:0px;word-spacing:0px;fill:url(#linearGradient28)"
       x="959.90356"
       y="539.01819"
       id="text18"
       transform="matrix(0.17761012,0,0,0.17761012,-100.09024,-37.789452)"><tspan
         sodipodi:role="line"
         id="tspan18"
         x="959.90356"
         y="539.01819"
         style="font-style:normal;font-variant:normal;font-weight:normal;font-stretch:normal;font-family:FreeSans;-inkscape-font-specification:FreeSans;fill:url(#linearGradient28)">Toolkit for Reproducible</tspan><tspan
         sodipodi:role="line"
         x="959.90356"
         y="606.49146"
         id="tspan19"
         style="font-style:normal;font-variant:normal;font-weight:normal;font-stretch:normal;font-family:FreeSans;-inkscape-font-specification:FreeSans;fill:url(#linearGradient28)">Analysis of Conductive Events</tspan></text><text
       xml:space="preserve"
       style="font-size:53.3333px;line-height:1.25;font-family:Gabriola;-inkscape-font-specification:Gabriola;letter-spacing:0px;word-spacing:0px;fill:#3e923c;fill-opacity:1"
       id="text23"
       y="427.71704"
       x="200.26546"
       transform="matrix(0.17073553,0,0,0.17073553,35.543229,-56.952806)"><tspan
         sodipodi:role="line"
         id="tspan23"
         x="200.26546"
         y="427.71704"
         style="font-style:normal;font-variant:normal;font-weight:normal;font-stretch:normal;font-family:'MV Boli';-inkscape-font-specification:'MV Boli';fill:#3e923c;fill-opacity:1">Nano</tspan></text></g></svg>
